<svg xmlns="http://www.w3.org/2000/svg" xmlns:xlink="http://www.w3.org/1999/xlink" viewBox="0,0,256,256" width="48px" height="48px" fill-rule="none"><defs><linearGradient x1="7.046" y1="10.956" x2="35.046" y2="38.956" gradientUnits="userSpaceOnUse" id="color-1"><stop offset="0" stop-color="#4dd435"></stop><stop offset="1" stop-color="#831bb3"></stop></linearGradient></defs><g fill="none" fill-rule="none" stroke="none" stroke-width="1" stroke-linecap="butt" stroke-linejoin="miter" stroke-miterlimit="10" stroke-dasharray="" stroke-dashoffset="0" font-family="none" font-weight="none" font-size="none" text-anchor="none" style="mix-blend-mode: normal"><g transform="scale(5.33333,5.33333)"><path d="M39.004,13.999v27c0,1.105 -0.895,2 -2,2h-26c-1.105,0 -2,-0.895 -2,-2v-34c0,-1.104 0.895,-2 2,-2h19.002l1.997,7z" fill="url(#color-1)" fill-rule="nonzero"></path><path d="M30.002,11.999l0.003,-7l8.999,8.999l-7.001,0.001z" fill="#d08cee" fill-rule="evenodd"></path><path d="M21.001,21.999v2.001h10.001v-2.001z" fill="#ffffff" fill-rule="evenodd"></path><path d="M18.002,21.558c0.795,0 1.44,0.647 1.44,1.441c0,0.795 -0.645,1.441 -1.44,1.441c-0.795,0 -1.44,-0.647 -1.44,-1.441c0,-0.794 0.645,-1.441 1.44,-1.441z" fill="#ffffff" fill-rule="evenodd"></path><path d="M21.001,26.999v2.001h10.001v-2.001z" fill="#ffffff" fill-rule="evenodd"></path><path d="M18.002,26.558c0.795,0 1.44,0.647 1.44,1.441c0,0.795 -0.645,1.441 -1.44,1.441c-0.795,0 -1.44,-0.647 -1.44,-1.441c0,-0.794 0.645,-1.441 1.44,-1.441z" fill="#ffffff" fill-rule="evenodd"></path><path d="M21.001,31.999v2.001h10.001v-2.001z" fill="#ffffff" fill-rule="evenodd"></path><path d="M18.002,31.558c0.795,0 1.44,0.647 1.44,1.441c0,0.795 -0.645,1.441 -1.44,1.441c-0.795,0 -1.44,-0.647 -1.44,-1.441c0,-0.794 0.645,-1.441 1.44,-1.441z" fill="#ffffff" fill-rule="evenodd"></path><path d="M32.002,9.998c1.104,0 2.001,0.897 2.001,2.001c0,1.104 -0.897,2.001 -2.001,2.001c-1.104,0 -2.001,-0.897 -2.001,-2.001c0,-1.104 0.897,-2.001 2.001,-2.001z" fill="#d08cee" fill-rule="evenodd"></path></g></g></svg>