<svg width="26" height="31" viewBox="0 0 26 31" fill="none" xmlns="http://www.w3.org/2000/svg">
<rect x="0.5" y="0.5" width="25" height="26" rx="3.5" fill="#6F00BF" stroke="black"/>
<g filter="url(#filter0_d_50_3)">
<mask id="path-2-outside-1_50_3" maskUnits="userSpaceOnUse" x="5" y="4" width="18" height="20" fill="black">
<rect fill="white" x="5" y="4" width="18" height="20"/>
<path d="M6.40661 23L9.30433 5.54545H20.8612L20.3498 8.58807H12.4833L11.8015 12.7472H18.9009L18.3896 15.7898H11.2901L10.0969 23H6.40661Z"/>
</mask>
<path d="M6.40661 23L9.30433 5.54545H20.8612L20.3498 8.58807H12.4833L11.8015 12.7472H18.9009L18.3896 15.7898H11.2901L10.0969 23H6.40661Z" fill="#1CCF00"/>
<path d="M6.40661 23L5.42011 22.8362L5.2269 24H6.40661V23ZM9.30433 5.54545V4.54545H8.45666L8.31783 5.38168L9.30433 5.54545ZM20.8612 5.54545L21.8473 5.7112L22.0432 4.54545H20.8612V5.54545ZM20.3498 8.58807V9.58807H21.1957L21.336 8.75381L20.3498 8.58807ZM12.4833 8.58807V7.58807H11.6339L11.4965 8.42629L12.4833 8.58807ZM11.8015 12.7472L10.8147 12.5854L10.6242 13.7472H11.8015V12.7472ZM18.9009 12.7472L19.8871 12.9129L20.083 11.7472H18.9009V12.7472ZM18.3896 15.7898V16.7898H19.2355L19.3757 15.9555L18.3896 15.7898ZM11.2901 15.7898V14.7898H10.442L10.3035 15.6265L11.2901 15.7898ZM10.0969 23V24H10.9451L11.0835 23.1633L10.0969 23ZM7.3931 23.1638L10.2908 5.70923L8.31783 5.38168L5.42011 22.8362L7.3931 23.1638ZM9.30433 6.54545H20.8612V4.54545H9.30433V6.54545ZM19.875 5.37971L19.3636 8.42232L21.336 8.75381L21.8473 5.7112L19.875 5.37971ZM20.3498 7.58807H12.4833V9.58807H20.3498V7.58807ZM11.4965 8.42629L10.8147 12.5854L12.7883 12.9089L13.4701 8.74984L11.4965 8.42629ZM11.8015 13.7472H18.9009V11.7472H11.8015V13.7472ZM17.9148 12.5814L17.4034 15.624L19.3757 15.9555L19.8871 12.9129L17.9148 12.5814ZM18.3896 14.7898H11.2901V16.7898H18.3896V14.7898ZM10.3035 15.6265L9.11036 22.8367L11.0835 23.1633L12.2767 15.953L10.3035 15.6265ZM10.0969 22H6.40661V24H10.0969V22Z" fill="black" mask="url(#path-2-outside-1_50_3)"/>
</g>
<defs>
<filter id="filter0_d_50_3" x="3.40662" y="5.54544" width="22.4545" height="25.4546" filterUnits="userSpaceOnUse" color-interpolation-filters="sRGB">
<feFlood flood-opacity="0" result="BackgroundImageFix"/>
<feColorMatrix in="SourceAlpha" type="matrix" values="0 0 0 0 0 0 0 0 0 0 0 0 0 0 0 0 0 0 127 0" result="hardAlpha"/>
<feOffset dx="1" dy="4"/>
<feGaussianBlur stdDeviation="2"/>
<feComposite in2="hardAlpha" operator="out"/>
<feColorMatrix type="matrix" values="0 0 0 0 0 0 0 0 0 0 0 0 0 0 0 0 0 0 0.25 0"/>
<feBlend mode="normal" in2="BackgroundImageFix" result="effect1_dropShadow_50_3"/>
<feBlend mode="normal" in="SourceGraphic" in2="effect1_dropShadow_50_3" result="shape"/>
</filter>
</defs>
</svg>
